<svg width="320" height="36" viewBox="0 0 320 36" fill="none" class="max-w-full" style="color: hsl(var(--inv-divider, 43 76% 52%));" xmlns="http://www.w3.org/2000/svg"><g stroke="currentColor" stroke-width="0.9" fill="none" opacity="0.85"><path d="M10 18 C 40 18, 55 6, 80 18 C 95 26, 110 14, 130 18" stroke-linecap="round"></path><path d="M55 18 C 60 12, 68 12, 72 18" opacity="0.6"></path><circle cx="80" cy="18" r="1.6" fill="currentColor"></circle><circle cx="40" cy="18" r="1" fill="currentColor" opacity="0.6"></circle><path d="M100 18 q 6 -8, 14 0" opacity="0.55"></path><path d="M100 18 q 6 8, 14 0" opacity="0.55"></path></g><g transform="translate(160 18)"><circle r="11" fill="none" stroke="currentColor" stroke-width="0.8" opacity="0.45"></circle><circle r="6" fill="none" stroke="currentColor" stroke-width="0.7" opacity="0.7"></circle><text x="0" y="0.5" text-anchor="middle" dominant-baseline="middle" fill="currentColor" font-size="11" style="font-family: serif;">❖</text></g><g stroke="currentColor" stroke-width="0.9" fill="none" opacity="0.85" transform="translate(320 0) scale(-1 1)"><path d="M10 18 C 40 18, 55 6, 80 18 C 95 26, 110 14, 130 18" stroke-linecap="round"></path><path d="M55 18 C 60 12, 68 12, 72 18" opacity="0.6"></path><circle cx="80" cy="18" r="1.6" fill="currentColor"></circle><circle cx="40" cy="18" r="1" fill="currentColor" opacity="0.6"></circle><path d="M100 18 q 6 -8, 14 0" opacity="0.55"></path><path d="M100 18 q 6 8, 14 0" opacity="0.55"></path></g></svg>