<svg width="120" height="68" viewBox="0 0 120 68" fill="none" aria-hidden="true" class="shrink-0 drop-shadow-[0_2px_8px_rgba(201,168,76,0.35)]" style="color: hsl(var(--inv-divider, 43 76% 52%));" xmlns="http://www.w3.org/2000/svg"><defs><linearGradient id="ringGoldA" x1="0" y1="0" x2="1" y2="1"><stop offset="0%" stop-color="currentColor" stop-opacity="0.7"></stop><stop offset="50%" stop-color="currentColor" stop-opacity="1"></stop><stop offset="100%" stop-color="currentColor" stop-opacity="0.7"></stop></linearGradient><linearGradient id="ringGoldB" x1="1" y1="0" x2="0" y2="1"><stop offset="0%" stop-color="currentColor" stop-opacity="0.7"></stop><stop offset="50%" stop-color="currentColor" stop-opacity="1"></stop><stop offset="100%" stop-color="currentColor" stop-opacity="0.7"></stop></linearGradient><radialGradient id="ringShine" cx="0.3" cy="0.3" r="0.7"><stop offset="0%" stop-color="white" stop-opacity="0.5"></stop><stop offset="100%" stop-color="white" stop-opacity="0"></stop></radialGradient></defs><ellipse cx="44" cy="34" rx="24" ry="23" stroke="url(#ringGoldA)" stroke-width="3.5" fill="none"></ellipse><ellipse cx="44" cy="34" rx="20" ry="19" stroke="currentColor" stroke-opacity="0.35" stroke-width="1" fill="none"></ellipse><ellipse cx="38" cy="26" rx="8" ry="4" fill="url(#ringShine)"></ellipse><g transform="translate(44 11)"><polygon points="0,-5 4,0 0,5 -4,0" fill="currentColor"></polygon><polygon points="0,-5 4,0 0,0" fill="white" fill-opacity="0.55"></polygon><circle cx="0" cy="0" r="1.4" fill="white" opacity="0.9"></circle></g><path d="M 52 34 A 24 23 0 0 1 100 34" stroke="url(#ringGoldB)" stroke-width="3.5" fill="none"></path><path d="M 100 34 A 24 23 0 0 1 52 34" stroke="url(#ringGoldB)" stroke-width="3.5" fill="none"></path><ellipse cx="76" cy="34" rx="20" ry="19" stroke="currentColor" stroke-opacity="0.35" stroke-width="1" fill="none"></ellipse><ellipse cx="84" cy="42" rx="7" ry="3.5" fill="url(#ringShine)"></ellipse><g transform="translate(96 18)"><path d="M0,-3 L0.7,-0.7 L3,0 L0.7,0.7 L0,3 L-0.7,0.7 L-3,0 L-0.7,-0.7 Z" fill="currentColor" opacity="0.9"></path></g></svg>